<svg width="80" height="80" viewBox="0 0 80 80" fill="none" xmlns="http://www.w3.org/2000/svg">
<circle cx="40" cy="40" r="38.5" fill="#101014" stroke="white" stroke-width="3"/>
<mask id="path-2-outside-1_957_763" maskUnits="userSpaceOnUse" x="12" y="25" width="53" height="29" fill="black">
<rect fill="white" x="12" y="25" width="53" height="29"/>
<path d="M18.54 53C18.22 53 17.9533 52.8867 17.74 52.66L13.74 48.66C13.5133 48.4467 13.4 48.18 13.4 47.86V31.46C13.4 31.1533 13.5133 30.8867 13.74 30.66L17.74 26.66C17.9533 26.4467 18.22 26.34 18.54 26.34H30.36C30.6933 26.34 30.86 26.5067 30.86 26.84V31.16C30.86 31.4933 30.6933 31.66 30.36 31.66H20.74C20.5533 31.66 20.3933 31.7267 20.26 31.86C20.1267 31.9933 20.06 32.1533 20.06 32.34V46.96C20.06 47.1467 20.1267 47.3067 20.26 47.44C20.3933 47.5733 20.5533 47.64 20.74 47.64H25.06V42.3H22.5C22.1667 42.3 22 42.1333 22 41.8V37.5C22 37.1667 22.1667 37 22.5 37H30.7C31.0333 37 31.2 37.1667 31.2 37.5V47.86C31.2 48.18 31.0867 48.4467 30.86 48.66L26.86 52.66C26.6467 52.8867 26.38 53 26.06 53H18.54ZM35.0922 52.84C34.7589 52.84 34.5922 52.66 34.5922 52.3V45.94C34.5922 45.58 34.7589 45.4 35.0922 45.4H41.4922C41.8255 45.4 41.9922 45.58 41.9922 45.94V52.3C41.9922 52.66 41.8255 52.84 41.4922 52.84H35.0922ZM51.1181 53C50.7981 53 50.5315 52.8867 50.3181 52.66L46.3181 48.66C46.0915 48.4467 45.9781 48.18 45.9781 47.86V31.46C45.9781 31.1533 46.0915 30.8867 46.3181 30.66L50.3181 26.66C50.5315 26.4467 50.7981 26.34 51.1181 26.34H62.9381C63.2715 26.34 63.4381 26.5067 63.4381 26.84V31.16C63.4381 31.4933 63.2715 31.66 62.9381 31.66H53.3181C53.1315 31.66 52.9715 31.7267 52.8381 31.86C52.7048 31.9933 52.6381 32.1533 52.6381 32.34V46.96C52.6381 47.1467 52.7048 47.3067 52.8381 47.44C52.9715 47.5733 53.1315 47.64 53.3181 47.64H57.6381V42.3H55.0781C54.7448 42.3 54.5781 42.1333 54.5781 41.8V37.5C54.5781 37.1667 54.7448 37 55.0781 37H63.2781C63.6115 37 63.7781 37.1667 63.7781 37.5V47.86C63.7781 48.18 63.6648 48.4467 63.4381 48.66L59.4381 52.66C59.2248 52.8867 58.9581 53 58.6381 53H51.1181Z"/>
</mask>
<path d="M18.54 53C18.22 53 17.9533 52.8867 17.74 52.66L13.74 48.66C13.5133 48.4467 13.4 48.18 13.4 47.86V31.46C13.4 31.1533 13.5133 30.8867 13.74 30.66L17.74 26.66C17.9533 26.4467 18.22 26.34 18.54 26.34H30.36C30.6933 26.34 30.86 26.5067 30.86 26.84V31.16C30.86 31.4933 30.6933 31.66 30.36 31.66H20.74C20.5533 31.66 20.3933 31.7267 20.26 31.86C20.1267 31.9933 20.06 32.1533 20.06 32.34V46.96C20.06 47.1467 20.1267 47.3067 20.26 47.44C20.3933 47.5733 20.5533 47.64 20.74 47.64H25.06V42.3H22.5C22.1667 42.3 22 42.1333 22 41.8V37.5C22 37.1667 22.1667 37 22.5 37H30.7C31.0333 37 31.2 37.1667 31.2 37.5V47.86C31.2 48.18 31.0867 48.4467 30.86 48.66L26.86 52.66C26.6467 52.8867 26.38 53 26.06 53H18.54ZM35.0922 52.84C34.7589 52.84 34.5922 52.66 34.5922 52.3V45.94C34.5922 45.58 34.7589 45.4 35.0922 45.4H41.4922C41.8255 45.4 41.9922 45.58 41.9922 45.94V52.3C41.9922 52.66 41.8255 52.84 41.4922 52.84H35.0922ZM51.1181 53C50.7981 53 50.5315 52.8867 50.3181 52.66L46.3181 48.66C46.0915 48.4467 45.9781 48.18 45.9781 47.86V31.46C45.9781 31.1533 46.0915 30.8867 46.3181 30.66L50.3181 26.66C50.5315 26.4467 50.7981 26.34 51.1181 26.34H62.9381C63.2715 26.34 63.4381 26.5067 63.4381 26.84V31.16C63.4381 31.4933 63.2715 31.66 62.9381 31.66H53.3181C53.1315 31.66 52.9715 31.7267 52.8381 31.86C52.7048 31.9933 52.6381 32.1533 52.6381 32.34V46.96C52.6381 47.1467 52.7048 47.3067 52.8381 47.44C52.9715 47.5733 53.1315 47.64 53.3181 47.64H57.6381V42.3H55.0781C54.7448 42.3 54.5781 42.1333 54.5781 41.8V37.5C54.5781 37.1667 54.7448 37 55.0781 37H63.2781C63.6115 37 63.7781 37.1667 63.7781 37.5V47.86C63.7781 48.18 63.6648 48.4467 63.4381 48.66L59.4381 52.66C59.2248 52.8867 58.9581 53 58.6381 53H51.1181Z" fill="white"/>
<path d="M17.74 52.66L18.1041 52.3173L18.0989 52.3118L18.0936 52.3064L17.74 52.66ZM13.74 48.66L14.0936 48.3064L14.0882 48.3011L14.0827 48.2959L13.74 48.66ZM13.74 30.66L13.3864 30.3064L13.3864 30.3064L13.74 30.66ZM17.74 26.66L18.0936 27.0136H18.0936L17.74 26.66ZM20.26 31.86L20.6136 32.2136H20.6136L20.26 31.86ZM20.26 47.44L20.6136 47.0864H20.6136L20.26 47.44ZM25.06 47.64V48.14H25.56V47.64H25.06ZM25.06 42.3H25.56V41.8H25.06V42.3ZM30.86 48.66L30.5173 48.2959L30.5118 48.3011L30.5064 48.3064L30.86 48.66ZM26.86 52.66L26.5064 52.3064L26.5011 52.3118L26.4959 52.3173L26.86 52.66ZM18.54 52.5C18.3535 52.5 18.22 52.4405 18.1041 52.3173L17.3759 53.0027C17.6867 53.3329 18.0865 53.5 18.54 53.5V52.5ZM18.0936 52.3064L14.0936 48.3064L13.3864 49.0136L17.3864 53.0136L18.0936 52.3064ZM14.0827 48.2959C13.9595 48.18 13.9 48.0465 13.9 47.86H12.9C12.9 48.3135 13.0671 48.7133 13.3973 49.0241L14.0827 48.2959ZM13.9 47.86V31.46H12.9V47.86H13.9ZM13.9 31.46C13.9 31.2925 13.9559 31.1512 14.0936 31.0135L13.3864 30.3064C13.0707 30.6221 12.9 31.0142 12.9 31.46H13.9ZM14.0936 31.0136L18.0936 27.0136L17.3864 26.3064L13.3864 30.3064L14.0936 31.0136ZM18.0936 27.0136C18.207 26.9001 18.3437 26.84 18.54 26.84V25.84C18.0963 25.84 17.6997 25.9932 17.3864 26.3064L18.0936 27.0136ZM18.54 26.84H30.36V25.84H18.54V26.84ZM30.36 26.84C30.381 26.84 30.3962 26.8413 30.4065 26.8428C30.4167 26.8442 30.4209 26.8457 30.4206 26.8456C30.4202 26.8454 30.4152 26.8437 30.4074 26.8391C30.3995 26.8343 30.3904 26.8275 30.3814 26.8186C30.3725 26.8096 30.3657 26.8005 30.3609 26.7926C30.3563 26.7848 30.3546 26.7798 30.3544 26.7794C30.3543 26.7791 30.3558 26.7833 30.3572 26.7935C30.3587 26.8037 30.36 26.819 30.36 26.84H31.36C31.36 26.5963 31.2987 26.3216 31.0886 26.1114C30.8784 25.9013 30.6037 25.84 30.36 25.84V26.84ZM30.36 26.84V31.16H31.36V26.84H30.36ZM30.36 31.16C30.36 31.181 30.3587 31.1962 30.3572 31.2065C30.3558 31.2167 30.3543 31.2209 30.3544 31.2206C30.3546 31.2202 30.3563 31.2152 30.3609 31.2074C30.3657 31.1995 30.3725 31.1904 30.3814 31.1814C30.3904 31.1725 30.3995 31.1657 30.4074 31.1609C30.4152 31.1563 30.4202 31.1546 30.4206 31.1544C30.4209 31.1543 30.4167 31.1558 30.4065 31.1572C30.3962 31.1587 30.381 31.16 30.36 31.16V32.16C30.6037 32.16 30.8784 32.0987 31.0886 31.8886C31.2987 31.6784 31.36 31.4037 31.36 31.16H30.36ZM30.36 31.16H20.74V32.16H30.36V31.16ZM20.74 31.16C20.4192 31.16 20.1325 31.2804 19.9064 31.5064L20.6136 32.2136C20.6542 32.1729 20.6874 32.16 20.74 32.16V31.16ZM19.9064 31.5064C19.6804 31.7325 19.56 32.0192 19.56 32.34H20.56C20.56 32.2874 20.5729 32.2542 20.6136 32.2136L19.9064 31.5064ZM19.56 32.34V46.96H20.56V32.34H19.56ZM19.56 46.96C19.56 47.2808 19.6804 47.5675 19.9064 47.7936L20.6136 47.0864C20.5729 47.0458 20.56 47.0126 20.56 46.96H19.56ZM19.9064 47.7936C20.1325 48.0196 20.4192 48.14 20.74 48.14V47.14C20.6874 47.14 20.6542 47.1271 20.6136 47.0864L19.9064 47.7936ZM20.74 48.14H25.06V47.14H20.74V48.14ZM25.56 47.64V42.3H24.56V47.64H25.56ZM25.06 41.8H22.5V42.8H25.06V41.8ZM22.5 41.8C22.479 41.8 22.4638 41.7987 22.4535 41.7972C22.4433 41.7958 22.4391 41.7943 22.4394 41.7944C22.4398 41.7946 22.4448 41.7963 22.4526 41.8009C22.4605 41.8057 22.4696 41.8125 22.4786 41.8214C22.4875 41.8304 22.4943 41.8395 22.4991 41.8474C22.5037 41.8552 22.5054 41.8602 22.5056 41.8606C22.5057 41.8609 22.5042 41.8567 22.5028 41.8465C22.5013 41.8362 22.5 41.821 22.5 41.8H21.5C21.5 42.0437 21.5613 42.3184 21.7714 42.5286C21.9816 42.7387 22.2563 42.8 22.5 42.8V41.8ZM22.5 41.8V37.5H21.5V41.8H22.5ZM22.5 37.5C22.5 37.479 22.5013 37.4638 22.5028 37.4535C22.5042 37.4433 22.5057 37.4391 22.5056 37.4394C22.5054 37.4398 22.5037 37.4448 22.4991 37.4526C22.4943 37.4605 22.4875 37.4696 22.4786 37.4786C22.4696 37.4875 22.4605 37.4943 22.4526 37.4991C22.4448 37.5037 22.4398 37.5054 22.4394 37.5056C22.4391 37.5057 22.4433 37.5042 22.4535 37.5028C22.4638 37.5013 22.479 37.5 22.5 37.5V36.5C22.2563 36.5 21.9816 36.5613 21.7714 36.7714C21.5613 36.9816 21.5 37.2563 21.5 37.5H22.5ZM22.5 37.5H30.7V36.5H22.5V37.5ZM30.7 37.5C30.721 37.5 30.7362 37.5013 30.7465 37.5028C30.7567 37.5042 30.7609 37.5057 30.7606 37.5056C30.7602 37.5054 30.7552 37.5037 30.7474 37.4991C30.7395 37.4943 30.7304 37.4875 30.7214 37.4786C30.7125 37.4696 30.7057 37.4605 30.7009 37.4526C30.6963 37.4448 30.6946 37.4398 30.6944 37.4394C30.6943 37.4391 30.6958 37.4433 30.6972 37.4535C30.6987 37.4638 30.7 37.479 30.7 37.5H31.7C31.7 37.2563 31.6387 36.9816 31.4286 36.7714C31.2184 36.5613 30.9437 36.5 30.7 36.5V37.5ZM30.7 37.5V47.86H31.7V37.5H30.7ZM30.7 47.86C30.7 48.0465 30.6405 48.18 30.5173 48.2959L31.2027 49.0241C31.5329 48.7133 31.7 48.3135 31.7 47.86H30.7ZM30.5064 48.3064L26.5064 52.3064L27.2136 53.0136L31.2136 49.0136L30.5064 48.3064ZM26.4959 52.3173C26.38 52.4405 26.2465 52.5 26.06 52.5V53.5C26.5135 53.5 26.9133 53.3329 27.2241 53.0027L26.4959 52.3173ZM26.06 52.5H18.54V53.5H26.06V52.5ZM35.0922 52.34C35.0525 52.34 35.0391 52.3345 35.0428 52.3358C35.045 52.3366 35.0512 52.3391 35.0594 52.3445C35.0678 52.3499 35.0763 52.357 35.0841 52.3653C35.0917 52.3736 35.0967 52.3811 35.0996 52.3862C35.1023 52.3912 35.1024 52.3926 35.1012 52.3888C35.0985 52.3801 35.0922 52.353 35.0922 52.3H34.0922C34.0922 52.5479 34.1488 52.8271 34.3503 53.0447C34.5586 53.2696 34.8382 53.34 35.0922 53.34V52.34ZM35.0922 52.3V45.94H34.0922V52.3H35.0922ZM35.0922 45.94C35.0922 45.887 35.0985 45.8599 35.1012 45.8512C35.1024 45.8474 35.1023 45.8488 35.0996 45.8538C35.0967 45.8589 35.0917 45.8664 35.0841 45.8747C35.0763 45.883 35.0678 45.8901 35.0594 45.8955C35.0512 45.9009 35.045 45.9034 35.0428 45.9042C35.0391 45.9055 35.0525 45.9 35.0922 45.9V44.9C34.8382 44.9 34.5586 44.9704 34.3503 45.1953C34.1488 45.4129 34.0922 45.6921 34.0922 45.94H35.0922ZM35.0922 45.9H41.4922V44.9H35.0922V45.9ZM41.4922 45.9C41.5319 45.9 41.5452 45.9055 41.5416 45.9042C41.5393 45.9034 41.5332 45.9009 41.525 45.8955C41.5166 45.8901 41.508 45.883 41.5003 45.8747C41.4926 45.8664 41.4877 45.8589 41.4848 45.8538C41.482 45.8488 41.482 45.8474 41.4832 45.8512C41.4859 45.8599 41.4922 45.887 41.4922 45.94H42.4922C42.4922 45.6921 42.4356 45.4129 42.2341 45.1953C42.0258 44.9704 41.7462 44.9 41.4922 44.9V45.9ZM41.4922 45.94V52.3H42.4922V45.94H41.4922ZM41.4922 52.3C41.4922 52.353 41.4859 52.3801 41.4832 52.3888C41.482 52.3926 41.482 52.3912 41.4848 52.3862C41.4877 52.3811 41.4926 52.3736 41.5003 52.3653C41.508 52.357 41.5166 52.3499 41.525 52.3445C41.5332 52.3391 41.5393 52.3366 41.5416 52.3358C41.5452 52.3345 41.5319 52.34 41.4922 52.34V53.34C41.7462 53.34 42.0258 53.2696 42.2341 53.0447C42.4356 52.8271 42.4922 52.5479 42.4922 52.3H41.4922ZM41.4922 52.34H35.0922V53.34H41.4922V52.34ZM50.3181 52.66L50.6822 52.3173L50.677 52.3118L50.6717 52.3064L50.3181 52.66ZM46.3181 48.66L46.6717 48.3064L46.6663 48.3011L46.6608 48.2959L46.3181 48.66ZM46.3181 30.66L45.9646 30.3064V30.3064L46.3181 30.66ZM50.3181 26.66L50.6717 27.0136L50.3181 26.66ZM52.8381 31.86L53.1917 32.2136L52.8381 31.86ZM52.8381 47.44L53.1917 47.0864H53.1917L52.8381 47.44ZM57.6381 47.64V48.14H58.1381V47.64H57.6381ZM57.6381 42.3H58.1381V41.8H57.6381V42.3ZM63.4381 48.66L63.0954 48.2959L63.0899 48.3011L63.0846 48.3064L63.4381 48.66ZM59.4381 52.66L59.0846 52.3064L59.0792 52.3118L59.074 52.3173L59.4381 52.66ZM51.1181 52.5C50.9316 52.5 50.7981 52.4405 50.6822 52.3173L49.954 53.0027C50.2648 53.3329 50.6646 53.5 51.1181 53.5V52.5ZM50.6717 52.3064L46.6717 48.3064L45.9646 49.0136L49.9646 53.0136L50.6717 52.3064ZM46.6608 48.2959C46.5377 48.18 46.4781 48.0465 46.4781 47.86H45.4781C45.4781 48.3135 45.6452 48.7133 45.9754 49.0241L46.6608 48.2959ZM46.4781 47.86V31.46H45.4781V47.86H46.4781ZM46.4781 31.46C46.4781 31.2925 46.534 31.1512 46.6717 31.0135L45.9646 30.3064C45.6489 30.6221 45.4781 31.0142 45.4781 31.46H46.4781ZM46.6717 31.0136L50.6717 27.0136L49.9646 26.3064L45.9646 30.3064L46.6717 31.0136ZM50.6717 27.0136C50.7851 26.9001 50.9218 26.84 51.1181 26.84V25.84C50.6744 25.84 50.2778 25.9932 49.9646 26.3064L50.6717 27.0136ZM51.1181 26.84H62.9381V25.84H51.1181V26.84ZM62.9381 26.84C62.9592 26.84 62.9744 26.8413 62.9846 26.8428C62.9948 26.8442 62.9991 26.8457 62.9988 26.8456C62.9983 26.8454 62.9933 26.8437 62.9856 26.8391C62.9776 26.8343 62.9685 26.8275 62.9596 26.8186C62.9506 26.8096 62.9438 26.8005 62.9391 26.7926C62.9344 26.7848 62.9327 26.7798 62.9325 26.7794C62.9324 26.7791 62.9339 26.7833 62.9353 26.7935C62.9368 26.8037 62.9381 26.819 62.9381 26.84H63.9381C63.9381 26.5963 63.8769 26.3216 63.6667 26.1114C63.4565 25.9013 63.1819 25.84 62.9381 25.84V26.84ZM62.9381 26.84V31.16H63.9381V26.84H62.9381ZM62.9381 31.16C62.9381 31.181 62.9368 31.1962 62.9353 31.2065C62.9339 31.2167 62.9324 31.2209 62.9325 31.2206C62.9327 31.2202 62.9344 31.2152 62.9391 31.2074C62.9438 31.1995 62.9506 31.1904 62.9596 31.1814C62.9685 31.1725 62.9776 31.1657 62.9856 31.1609C62.9933 31.1563 62.9983 31.1546 62.9988 31.1544C62.9991 31.1543 62.9948 31.1558 62.9846 31.1572C62.9744 31.1587 62.9592 31.16 62.9381 31.16V32.16C63.1819 32.16 63.4565 32.0987 63.6667 31.8886C63.8769 31.6784 63.9381 31.4037 63.9381 31.16H62.9381ZM62.9381 31.16H53.3181V32.16H62.9381V31.16ZM53.3181 31.16C52.9973 31.16 52.7106 31.2804 52.4846 31.5064L53.1917 32.2136C53.2323 32.1729 53.2656 32.16 53.3181 32.16V31.16ZM52.4846 31.5064C52.2585 31.7325 52.1381 32.0192 52.1381 32.34H53.1381C53.1381 32.2874 53.151 32.2542 53.1917 32.2136L52.4846 31.5064ZM52.1381 32.34V46.96H53.1381V32.34H52.1381ZM52.1381 46.96C52.1381 47.2808 52.2585 47.5675 52.4846 47.7936L53.1917 47.0864C53.151 47.0458 53.1381 47.0126 53.1381 46.96H52.1381ZM52.4846 47.7936C52.7106 48.0196 52.9973 48.14 53.3181 48.14V47.14C53.2656 47.14 53.2323 47.1271 53.1917 47.0864L52.4846 47.7936ZM53.3181 48.14H57.6381V47.14H53.3181V48.14ZM58.1381 47.64V42.3H57.1381V47.64H58.1381ZM57.6381 41.8H55.0781V42.8H57.6381V41.8ZM55.0781 41.8C55.0571 41.8 55.0419 41.7987 55.0317 41.7972C55.0215 41.7958 55.0172 41.7943 55.0175 41.7944C55.018 41.7946 55.0229 41.7963 55.0307 41.8009C55.0386 41.8057 55.0477 41.8125 55.0567 41.8214C55.0656 41.8304 55.0724 41.8395 55.0772 41.8474C55.0818 41.8552 55.0836 41.8602 55.0837 41.8606C55.0838 41.8609 55.0824 41.8567 55.0809 41.8465C55.0795 41.8362 55.0781 41.821 55.0781 41.8H54.0781C54.0781 42.0437 54.1394 42.3184 54.3496 42.5286C54.5597 42.7387 54.8344 42.8 55.0781 42.8V41.8ZM55.0781 41.8V37.5H54.0781V41.8H55.0781ZM55.0781 37.5C55.0781 37.479 55.0795 37.4638 55.0809 37.4535C55.0824 37.4433 55.0838 37.4391 55.0837 37.4394C55.0836 37.4398 55.0818 37.4448 55.0772 37.4526C55.0724 37.4605 55.0656 37.4696 55.0567 37.4786C55.0477 37.4875 55.0386 37.4943 55.0307 37.4991C55.0229 37.5037 55.018 37.5054 55.0175 37.5056C55.0172 37.5057 55.0215 37.5042 55.0317 37.5028C55.0419 37.5013 55.0571 37.5 55.0781 37.5V36.5C54.8344 36.5 54.5597 36.5613 54.3496 36.7714C54.1394 36.9816 54.0781 37.2563 54.0781 37.5H55.0781ZM55.0781 37.5H63.2781V36.5H55.0781V37.5ZM63.2781 37.5C63.2992 37.5 63.3144 37.5013 63.3246 37.5028C63.3348 37.5042 63.3391 37.5057 63.3388 37.5056C63.3383 37.5054 63.3333 37.5037 63.3256 37.4991C63.3176 37.4943 63.3085 37.4875 63.2996 37.4786C63.2906 37.4696 63.2838 37.4605 63.2791 37.4526C63.2744 37.4448 63.2727 37.4398 63.2725 37.4394C63.2724 37.4391 63.2739 37.4433 63.2753 37.4535C63.2768 37.4638 63.2781 37.479 63.2781 37.5H64.2781C64.2781 37.2563 64.2169 36.9816 64.0067 36.7714C63.7965 36.5613 63.5219 36.5 63.2781 36.5V37.5ZM63.2781 37.5V47.86H64.2781V37.5H63.2781ZM63.2781 47.86C63.2781 48.0465 63.2186 48.18 63.0954 48.2959L63.7808 49.0241C64.111 48.7133 64.2781 48.3135 64.2781 47.86H63.2781ZM63.0846 48.3064L59.0846 52.3064L59.7917 53.0136L63.7917 49.0136L63.0846 48.3064ZM59.074 52.3173C58.9581 52.4405 58.8246 52.5 58.6381 52.5V53.5C59.0916 53.5 59.4915 53.3329 59.8022 53.0027L59.074 52.3173ZM58.6381 52.5H51.1181V53.5H58.6381V52.5Z" fill="white" mask="url(#path-2-outside-1_957_763)"/>
</svg>
